HIERARCHY
ROOT Hips
{
 OFFSET 0.000000 0.000000 0.000000
 CHANNELS 6 Xposition Yposition Zposition Yrotation Xrotation Zrotation
 JOINT Chest
 {
  OFFSET 0.000000 9.585900 0.002600
  CHANNELS 3 Yrotation Xrotation Zrotation
  JOINT Chest2
  {
   OFFSET 0.000000 9.601200 -0.005300
   CHANNELS 3 Yrotation Xrotation Zrotation
   JOINT Chest3
   {
    OFFSET 0.000000 9.561800 0.000000
    CHANNELS 3 Yrotation Xrotation Zrotation
    JOINT Chest4
    {
     OFFSET 0.000000 9.552100 0.000000
     CHANNELS 3 Yrotation Xrotation Zrotation
     JOINT Neck
     {
      OFFSET 0.000000 14.453000 0.000000
      CHANNELS 3 Yrotation Xrotation Zrotation
      JOINT Head
      {
       OFFSET 0.000000 8.936500 -0.011300
       CHANNELS 3 Yrotation Xrotation Zrotation
       End Site
       {
        OFFSET 0.000000 17.073600 -0.006000
       }
      }
     }
     JOINT RightCollar
     {
      OFFSET -2.921100 9.558500 0.000000
      CHANNELS 3 Yrotation Xrotation Zrotation
      JOINT RightShoulder
      {
       OFFSET -13.519700 0.000000 0.000000
       CHANNELS 3 Yrotation Xrotation Zrotation
       JOINT RightElbow
       {
        OFFSET 0.000000 -29.696600 0.000000
        CHANNELS 3 Yrotation Xrotation Zrotation
        JOINT RightWrist
        {
         OFFSET 0.000000 -24.004700 0.000000
         CHANNELS 3 Yrotation Xrotation Zrotation
         End Site
         {
          OFFSET 0.000000 -17.728500 0.000000
         }
        }
       }
      }
     }
     JOINT LeftCollar
     {
      OFFSET 2.921100 9.558500 0.000000
      CHANNELS 3 Yrotation Xrotation Zrotation
      JOINT LeftShoulder
      {
       OFFSET 13.519700 0.000000 0.000000
       CHANNELS 3 Yrotation Xrotation Zrotation
       JOINT LeftElbow
       {
        OFFSET 0.000000 -29.696600 0.000000
        CHANNELS 3 Yrotation Xrotation Zrotation
        JOINT LeftWrist
        {
         OFFSET 0.000000 -24.004700 0.000000
         CHANNELS 3 Yrotation Xrotation Zrotation
         End Site
         {
          OFFSET 0.000000 -17.728500 0.000000
         }
        }
       }
      }
     }
    }
   }
  }
 }
 JOINT RightHip
 {
  OFFSET -7.771700 -0.012900 -0.001300
  CHANNELS 3 Yrotation Xrotation Zrotation
  JOINT RightKnee
  {
   OFFSET 0.000000 -40.869800 0.001200
   CHANNELS 3 Yrotation Xrotation Zrotation
   JOINT RightAnkle
   {
    OFFSET 0.000000 -39.717900 0.002100
    CHANNELS 3 Yrotation Xrotation Zrotation
    JOINT RightToe
    {
     OFFSET 0.000000 -4.965400 11.033500
     CHANNELS 3 Yrotation Xrotation Zrotation
     End Site
     {
      OFFSET 0.000000 -1.423100 5.872300
     }
    }
   }
  }
 }
 JOINT LeftHip
 {
  OFFSET 7.771700 -0.012900 -0.001300
  CHANNELS 3 Yrotation Xrotation Zrotation
  JOINT LeftKnee
  {
   OFFSET 0.000000 -40.869800 0.001200
   CHANNELS 3 Yrotation Xrotation Zrotation
   JOINT LeftAnkle
   {
    OFFSET 0.000000 -39.717900 0.002100
    CHANNELS 3 Yrotation Xrotation Zrotation
    JOINT LeftToe
    {
     OFFSET 0.000000 -4.965400 11.033500
     CHANNELS 3 Yrotation Xrotation Zrotation
     End Site
     {
      OFFSET 0.000000 -1.423100 5.872300
     }
    }
   }
  }
 }
}
MOTION
Frames: 5
Frame Time: 0.008333
0.000000 85.388000 0.000000 0.000000 -5.767877 0.000000 0.000000 11.653817 0.000000 0.000000 -5.885947 0.000000 0.000000 -0.000000 0.000000 0.000000 -0.000000 0.000000 0.000000 12.528835 0.000000 0.000000 0.711642 0.000000 0.000000 -0.000000 0.000000 0.000000 0.000000 -90.000000 0.000000 -2.309062 0.000000 0.000000 2.309062 0.000000 0.000000 -0.000000 0.000000 0.000000 -0.000000 90.000000 0.000000 -2.309062 0.000000 0.000000 2.309062 0.000000 0.000000 8.520406 0.000000 0.000000 1.905762 0.000000 -0.000000 -4.658285 0.000000 0.000000 -0.000000 0.000000 0.000000 8.520406 0.000000 0.000000 1.905762 0.000000 -0.000000 -4.658285 0.000000 0.000000 -0.000000 0.000000
24.375989 50.042790 59.869587 172.618133 -32.500912 -6.884896 7.540179 24.417150 8.600992 0.989410 4.117998 0.986296 1.599371 6.602851 1.618769 5.755138 20.280356 5.809818 -2.691371 16.191299 1.209589 -5.427295 -5.622414 3.198881 0.166298 -3.926057 -8.171029 17.151359 -22.994356 -7.783150 -164.408444 -66.663459 159.033589 -8.607973 -8.895255 26.374751 -14.850488 -3.974382 1.269341 -2.879163 -25.799687 2.007934 176.380616 -64.576177 -178.986750 32.205704 -2.358276 -16.840891 -1.107794 -48.017416 12.294077 -117.377508 84.458418 -104.947753 -1.260959 -12.024965 -5.342242 -0.210168 0.904760 -0.074581 -8.360718 -52.099848 17.026847 -149.916017 80.157348 -157.496212 1.456733 -16.948463 8.520759 -0.516877 -0.914357 -0.227319
24.372606 50.039507 59.843728 172.733379 -32.505607 -6.878945 7.418687 24.401056 8.522909 0.974057 4.094382 0.983186 1.581223 6.560837 1.611300 5.715161 20.230473 5.800076 -2.720046 16.081035 1.203272 -5.483470 -5.825801 3.203174 0.179029 -3.973545 -8.149953 17.056522 -22.896302 -7.829918 -165.400329 -66.841392 159.921924 -8.481881 -8.854994 26.394064 -14.775151 -4.073992 1.240920 -2.875023 -25.758290 2.062150 176.906745 -64.702808 -179.440745 32.137997 -2.463477 -16.475053 -1.121885 -48.007324 12.203062 -118.021010 84.432464 -105.597469 -1.279678 -12.080255 -5.331360 -0.212026 0.908245 -0.072424 -8.380634 -52.094995 16.931437 -149.888354 80.133407 -157.484697 1.428327 -16.953255 8.528324 -0.500211 -0.916838 -0.218252
24.379508 50.032941 59.824238 172.769672 -32.469349 -6.893570 7.382295 24.301735 8.503797 0.960140 4.098511 0.985188 1.564796 6.516561 1.603738 5.681127 20.176265 5.791430 -2.751972 15.965534 1.197377 -5.546239 -6.038746 3.209772 0.183630 -4.030134 -8.130296 16.949765 -22.771272 -7.868016 -166.408467 -66.993561 160.818195 -8.392361 -8.860201 26.393508 -14.701793 -4.181913 1.214114 -2.875423 -25.715475 2.119012 177.491373 -64.842063 -179.943831 32.083910 -2.628585 -16.009830 -1.145682 -48.046999 12.207995 -118.346503 84.409886 -105.926667 -1.269956 -12.097915 -5.322959 -0.243238 0.907116 -0.077228 -8.473272 -52.120188 17.007095 -149.713810 80.087045 -157.364342 1.407175 -16.985985 8.547051 -0.481411 -0.903349 -0.211812
24.385319 50.026775 59.803248 172.778260 -32.437057 -6.884268 7.370670 24.238506 8.487273 0.950811 4.067808 0.980353 1.550219 6.470734 1.596244 5.653192 20.118504 5.784025 -2.786731 15.846548 1.190240 -5.614122 -6.258102 3.215333 0.175799 -4.092822 -8.114051 16.835897 -22.620913 -7.891403 -167.460725 -67.121736 161.745839 -8.344848 -8.924194 26.364529 -14.634127 -4.296152 1.187752 -2.890644 -25.664274 2.181543 178.200749 -64.983205 179.461636 32.029686 -2.860387 -15.455226 -1.136123 -48.086717 12.200011 -118.650715 84.384489 -106.237202 -1.258133 -12.120641 -5.308454 -0.241923 0.913322 -0.086355 -8.480848 -52.151390 17.010713 -149.688467 80.045744 -157.362740 1.428458 -17.029794 8.569591 -0.500585 -0.897473 -0.220623
